<svg width="28" height="28" viewBox="0 0 28 28" fill="none" xmlns="http://www.w3.org/2000/svg">
<path d="M11.6667 12.0833H4.66667C4.55616 12.0833 4.45018 12.0394 4.37204 11.9613C4.2939 11.8832 4.25 11.7772 4.25 11.6667V4.66667C4.25 4.55616 4.2939 4.45018 4.37204 4.37204C4.45018 4.2939 4.55616 4.25 4.66667 4.25H11.6667C11.7772 4.25 11.8832 4.2939 11.9613 4.37204C12.0394 4.45018 12.0833 4.55616 12.0833 4.66667V11.6667C12.0833 11.7772 12.0394 11.8832 11.9613 11.9613C11.8832 12.0394 11.7772 12.0833 11.6667 12.0833ZM23.3333 12.0833H16.3333C16.2228 12.0833 16.1168 12.0394 16.0387 11.9613C15.9606 11.8832 15.9167 11.7772 15.9167 11.6667V4.66667C15.9167 4.55616 15.9606 4.45018 16.0387 4.37204C16.1168 4.2939 16.2228 4.25 16.3333 4.25H23.3333C23.4438 4.25 23.5498 4.2939 23.628 4.37204C23.7061 4.45018 23.75 4.55616 23.75 4.66667V11.6667C23.75 11.7772 23.7061 11.8832 23.628 11.9613C23.5498 12.0394 23.4438 12.0833 23.3333 12.0833ZM11.6667 23.75H4.66667C4.55616 23.75 4.45018 23.7061 4.37204 23.628C4.2939 23.5498 4.25 23.4438 4.25 23.3333V16.3333C4.25 16.2228 4.2939 16.1168 4.37204 16.0387C4.45018 15.9606 4.55616 15.9167 4.66667 15.9167H11.6667C11.7772 15.9167 11.8832 15.9606 11.9613 16.0387C12.0394 16.1168 12.0833 16.2228 12.0833 16.3333V23.3333C12.0833 23.4438 12.0394 23.5498 11.9613 23.628C11.8832 23.7061 11.7772 23.75 11.6667 23.75ZM23.75 19.8333C23.75 21.9928 21.9928 23.75 19.8333 23.75C17.6739 23.75 15.9167 21.9928 15.9167 19.8333C15.9167 17.6739 17.6739 15.9167 19.8333 15.9167C21.9928 15.9167 23.75 17.6739 23.75 19.8333Z" stroke="#FFBCA2" stroke-width="1.5"/>
</svg>
