<svg width="28" height="28" viewBox="0 0 28 28" fill="none" xmlns="http://www.w3.org/2000/svg">
<path d="M24.9077 11.2609C24.8025 10.9208 24.6091 10.6176 24.3488 10.3849C24.0885 10.1523 23.7716 9.99921 23.433 9.94272L18.1205 9.04277L15.6578 4.05433C15.5009 3.73676 15.2632 3.47036 14.9706 3.28438C14.6781 3.09839 14.342 3 13.9993 3C13.6567 3 13.3206 3.09839 13.028 3.28438C12.7355 3.47036 12.4977 3.73676 12.3409 4.05433L9.87814 9.04277L4.56574 9.94272C4.22752 10.0001 3.911 10.1535 3.65091 10.386C3.39082 10.6186 3.1972 10.9213 3.09131 11.261C2.98541 11.6007 2.97133 11.9643 3.05061 12.3118C3.12989 12.6593 3.29946 12.9773 3.54073 13.231L7.33114 17.2139L6.51072 22.7585C6.45808 23.1117 6.49989 23.4731 6.63156 23.8031C6.76323 24.1331 6.97966 24.4188 7.25704 24.6289C7.53441 24.839 7.862 24.9652 8.20376 24.9938C8.54553 25.0223 8.88823 24.9521 9.19417 24.7908L13.9993 22.2639L18.8046 24.7908C19.1106 24.9518 19.4532 25.0218 19.7949 24.9931C20.1365 24.9643 20.4639 24.8381 20.7412 24.6281C21.0185 24.4181 21.2349 24.1325 21.3666 23.8027C21.4984 23.4729 21.5404 23.1116 21.4881 22.7585L20.6677 17.2139L24.4581 13.231C24.7001 12.9778 24.8702 12.6598 24.9496 12.3121C25.0289 11.9644 25.0144 11.6006 24.9077 11.2609ZM23.4167 12.1543L19.1052 16.6849L20.0385 22.9917C20.0501 23.0672 20.0414 23.1446 20.0133 23.2153C19.9853 23.286 19.939 23.3472 19.8797 23.3922C19.8203 23.4371 19.7502 23.4641 19.677 23.47C19.6038 23.476 19.5305 23.4607 19.4652 23.4259L13.9993 20.5516L8.53344 23.426C8.4681 23.4608 8.39479 23.4761 8.32164 23.4701C8.24848 23.4642 8.17833 23.4372 8.11897 23.3923C8.0596 23.3473 8.01334 23.2861 7.9853 23.2154C7.95726 23.1447 7.94854 23.0673 7.96011 22.9918L8.89351 16.6849L4.58201 12.1543C4.53053 12.1001 4.49435 12.0321 4.47744 11.9579C4.46054 11.8837 4.46356 11.806 4.48618 11.7335C4.50879 11.6609 4.55013 11.5962 4.60566 11.5465C4.66119 11.4968 4.72878 11.464 4.801 11.4517L10.8437 10.4281L13.645 4.75391C13.6785 4.68604 13.7293 4.6291 13.7918 4.58934C13.8543 4.54959 13.9261 4.52856 13.9993 4.52856C14.0726 4.52856 14.1444 4.54959 14.2069 4.58934C14.2694 4.6291 14.3202 4.68604 14.3537 4.75391L17.155 10.4281L23.1977 11.4517C23.2699 11.464 23.3375 11.4968 23.393 11.5465C23.4485 11.5962 23.4899 11.6609 23.5125 11.7335C23.5351 11.806 23.5381 11.8837 23.5212 11.9579C23.5043 12.0321 23.4682 12.1001 23.4167 12.1543L23.4167 12.1543Z" fill="white"/>
</svg>
