<svg width="28" height="28" viewBox="0 0 28 28" fill="none" xmlns="http://www.w3.org/2000/svg">
<path d="M12.3083 2.95373C12.7817 2.55475 13.3809 2.33594 14 2.33594C14.6191 2.33594 15.2183 2.55475 15.6917 2.95373L23.5667 9.59439C24.1582 10.0937 24.5 10.8276 24.5 11.6011V23.0379C24.5 23.5794 24.2849 24.0987 23.902 24.4816C23.5191 24.8645 22.9998 25.0796 22.4583 25.0796H18.375C17.8335 25.0796 17.3142 24.8645 16.9313 24.4816C16.5484 24.0987 16.3333 23.5794 16.3333 23.0379V16.6212C16.3333 16.5439 16.3026 16.4697 16.2479 16.415C16.1932 16.3603 16.119 16.3296 16.0417 16.3296H11.9583C11.881 16.3296 11.8068 16.3603 11.7521 16.415C11.6974 16.4697 11.6667 16.5439 11.6667 16.6212V23.0379C11.6667 23.5794 11.4516 24.0987 11.0687 24.4816C10.6858 24.8645 10.1665 25.0796 9.625 25.0796H5.54167C5.27355 25.0796 5.00806 25.0267 4.76035 24.9241C4.51265 24.8215 4.28758 24.6712 4.09799 24.4816C3.9084 24.292 3.75802 24.0669 3.65541 23.8192C3.55281 23.5715 3.5 23.306 3.5 23.0379V11.6011C3.5 10.8276 3.84183 10.0937 4.43333 9.59439L12.3083 2.95373ZM14.5635 4.29189C14.4058 4.15911 14.2062 4.08629 14 4.08629C13.7938 4.08629 13.5942 4.15911 13.4365 4.29189L5.5615 10.9314C5.46405 11.0134 5.38568 11.1158 5.33188 11.2312C5.27807 11.3467 5.25013 11.4725 5.25 11.5999V23.0367C5.25 23.1977 5.38067 23.3284 5.54167 23.3284H9.625C9.70235 23.3284 9.77654 23.2977 9.83124 23.243C9.88594 23.1883 9.91667 23.1141 9.91667 23.0367V16.6201C9.91667 15.4919 10.8313 14.5784 11.9583 14.5784H16.0417C17.1687 14.5784 18.0833 15.4919 18.0833 16.6201V23.0367C18.0833 23.1977 18.214 23.3284 18.375 23.3284H22.4583C22.5357 23.3284 22.6099 23.2977 22.6646 23.243C22.7193 23.1883 22.75 23.1141 22.75 23.0367V11.6011C22.7499 11.4737 22.7219 11.3479 22.6681 11.2324C22.6143 11.1169 22.536 11.0146 22.4385 10.9326L14.5635 4.29189Z" fill="white"/>
</svg>
